<?xml version="1.0" encoding="UTF-8"?>
<svg version="1.1" xmlns="http://www.w3.org/2000/svg" width="184" height="148">
<path d="M0 0 C60.72 0 121.44 0 184 0 C184 48.84 184 97.68 184 148 C123.28 148 62.56 148 0 148 C0 99.16 0 50.32 0 0 Z " fill="#EEEAE7" transform="translate(0,0)"/>
<path d="M0 0 C28.71 0 57.42 0 87 0 C88.08763147 3.26289441 88.12929279 5.66883596 88.1328125 9.1015625 C88.13410156 10.31457031 88.13539062 11.52757812 88.13671875 12.77734375 C88.13285156 14.04707031 88.12898438 15.31679687 88.125 16.625 C88.12886719 17.87152344 88.13273437 19.11804688 88.13671875 20.40234375 C88.12973027 27.02043564 87.89628161 33.4414949 87 40 C87.33 40 87.66 40 88 40 C88 47.26 88 54.52 88 62 C87.01 62 86.02 62 85 62 C85.4125 63.216875 85.825 64.43375 86.25 65.6875 C86.61633788 68.51870385 86.46464568 70.27978887 84.90185547 72.70214844 C81.60830843 76.80481356 77.93614682 80.51616006 74 84 C73.34 84 72.68 84 72 84 C71.34 86.64 70.68 89.28 70 92 C70.66 92 71.32 92 72 92 C72.09667969 91.40058594 72.19335938 90.80117187 72.29296875 90.18359375 C73.1490041 87.53981607 74.13530761 86.74551168 76.3125 85.0625 C78.70548001 83.14323236 80.29891745 81.60713706 82.1875 79.125 C82.785625 78.42375 83.38375 77.7225 84 77 C85.32 77 86.64 77 88 77 C88.1698192 81.29154789 88.3352753 85.58325378 88.5 89.875 C88.57154297 91.68097656 88.57154297 91.68097656 88.64453125 93.5234375 C89.57104056 117.87739646 89.57104056 117.87739646 85.96875 125.0546875 C84.68431907 127.63390767 84.3869221 130.1625713 84 133 C84.66 133 85.32 133 86 133 C86.12375 132.319375 86.2475 131.63875 86.375 130.9375 C87.09100877 127.5722588 88.02945125 124.29986575 89 121 C89.33 121 89.66 121 90 121 C90.2493357 122.60115576 90.47378648 124.20620159 90.6875 125.8125 C90.81511719 126.70582031 90.94273438 127.59914063 91.07421875 128.51953125 C91 131 91 131 89.5625 132.625 C89.046875 133.07875 88.53125 133.5325 88 134 C87.2730774 137.10839021 87.2730774 137.10839021 87 140 C89.65228812 141.07525194 92.28368454 142.09456151 95 143 C95 142.34 95 141.68 95 141 C95.66 141 96.32 141 97 141 C97 143.31 97 145.62 97 148 C64.99 148 32.98 148 0 148 C0 99.16 0 50.32 0 0 Z " fill="#EEEAE8" transform="translate(0,0)"/>
<path d="M0 0 C3.3 0 6.6 0 10 0 C10.02693575 2.12493141 10.04636628 4.24995912 10.0625 6.375 C10.07410156 7.55835938 10.08570312 8.74171875 10.09765625 9.9609375 C10 13 10 13 9 15 C8.34 15 7.68 15 7 15 C7.04125 16.27875 7.0825 17.5575 7.125 18.875 C7.14157783 24.08872856 6.18311358 28.94007672 5 34 C3.515 33.505 3.515 33.505 2 33 C2 33.66 2 34.32 2 35 C3.485 35.495 3.485 35.495 5 36 C5.00410889 36.80107178 5.00821777 37.60214355 5.01245117 38.42749023 C5.04558285 42.09821564 5.11625219 45.76732445 5.1875 49.4375 C5.19330078 50.69755859 5.19910156 51.95761719 5.20507812 53.25585938 C5.41864724 62.34441191 6.83832517 68.49151894 13.0625 75.234375 C14.0215625 75.98460938 14.0215625 75.98460938 15 76.75 C15.680625 77.30558594 16.36125 77.86117187 17.0625 78.43359375 C17.701875 78.95050781 18.34125 79.46742187 19 80 C20.77392954 81.60762365 22.38138596 83.22964089 24 85 C24 85.66 24 86.32 24 87 C21.3125 87.8125 21.3125 87.8125 18 88 C15.125 85.6875 15.125 85.6875 13 83 C13 82.34 13 81.68 13 81 C12.401875 80.71125 11.80375 80.4225 11.1875 80.125 C9 79 9 79 6 77 C6.14214728 80.00021487 6.28861696 83.00011789 6.4375 86 C6.47681641 86.83917969 6.51613281 87.67835937 6.55664062 88.54296875 C6.91022989 97.38253963 6.91022989 97.38253963 8.58203125 106.03125 C9.25700911 109.21058499 8.90048703 112.27022653 8.6875 115.5 C8.60886719 116.8096875 8.53023437 118.119375 8.44921875 119.46875 C8.05683834 122.55320122 7.6223285 124.4042744 6 127 C6.66 127.33 7.32 127.66 8 128 C10.21430114 131.3214517 10.32055627 134.07318564 10 138 C9 140.875 9 140.875 8 143 C4.62537285 142.45276317 2.91765 141.9451 0 140 C-0.375 137.0625 -0.375 137.0625 0 134 C0.98020375 132.9805881 1.97803008 131.97753644 3 131 C2.77242269 128.83700789 2.77242269 128.83700789 2 127 C1.01 128.98 0.02 130.96 -1 133 C-1.66 133 -2.32 133 -3 133 C-2.88541307 131.56163249 -2.75790884 130.12429034 -2.625 128.6875 C-2.52058594 127.48673828 -2.52058594 127.48673828 -2.4140625 126.26171875 C-2 124 -2 124 0 121 C1.44660133 111.17477297 1.12565741 101.02613799 1.0625 91.125 C1.05746511 89.74349124 1.05290579 88.36198067 1.04882812 86.98046875 C1.03719571 83.65359754 1.0208528 80.32682398 1 77 C-2.95515817 78.43237376 -4.58995551 79.5570793 -7 83 C-7.66 83 -8.32 83 -9 83 C-9.4021875 83.9590625 -9.4021875 83.9590625 -9.8125 84.9375 C-11 87 -11 87 -14 88 C-14.73323796 90.01508358 -14.73323796 90.01508358 -15 92 C-15.66 92 -16.32 92 -17 92 C-15.87700336 84.76291053 -13.63138691 82.38643154 -8 78 C-5.43973852 75.89380199 -3.43865452 74.01458522 -2 71 C-1.80426885 66.89479671 -2.27088997 63.03661823 -3 59 C-1.68 59.99 -0.36 60.98 1 62 C0.8608331 58.58302762 0.71250415 55.16651243 0.5625 51.75 C0.52318359 50.78191406 0.48386719 49.81382813 0.44335938 48.81640625 C0.40146484 47.88183594 0.35957031 46.94726562 0.31640625 45.984375 C0.27974854 45.12553711 0.24309082 44.26669922 0.20532227 43.38183594 C0.08578498 41.04578653 0.08578498 41.04578653 -0.58227539 39.06347656 C-1.15962013 36.21150828 -0.50617727 33.85797817 0 31 C0.0790131 28.54532644 0.1078047 26.08873644 0.09765625 23.6328125 C0.09553383 22.61343094 0.09553383 22.61343094 0.09336853 21.57345581 C0.08781518 19.42392388 0.07527169 17.27449992 0.0625 15.125 C0.05747896 13.65885568 0.05291711 12.19270971 0.04882812 10.7265625 C0.03786111 7.15100717 0.02062919 3.57551414 0 0 Z " fill="#0E0C0B" transform="translate(87,0)"/>
<path d="M0 0 C1.32 0 2.64 0 4 0 C4.1698192 4.29154789 4.3352753 8.58325378 4.5 12.875 C4.54769531 14.07898438 4.59539062 15.28296875 4.64453125 16.5234375 C5.40929239 36.62573031 5.40929239 36.62573031 4.125 42 C3.96257812 42.721875 3.80015625 43.44375 3.6328125 44.1875 C3 46 3 46 1 48 C-0.66666667 48 -2.33333333 48 -4 48 C-4.66 48.66 -5.32 49.32 -6 50 C-6 49.01 -6 48.02 -6 47 C-6.66 47 -7.32 47 -8 47 C-8.391875 46.29875 -8.78375 45.5975 -9.1875 44.875 C-10.89274541 42.17012798 -12.17169011 40.93655955 -14.625 39 C-17.14107566 36.95535747 -17.90272469 36.29831095 -18.9375 33.125 C-18.958125 32.42375 -18.97875 31.7225 -19 31 C-17.35 30.01 -15.7 29.02 -14 28 C-14.66 26.02 -15.32 24.04 -16 22 C-17.98 22.99 -17.98 22.99 -20 24 C-20 25.98 -20 27.96 -20 30 C-23 30 -23 30 -24.8125 28.375 C-26 26 -26 26 -25.5 23.0625 C-23.50393695 18.9872046 -21.16043604 15.88959131 -16.875 14.125 C-15 14 -15 14 -12 15 C-11.90332031 14.40058594 -11.80664062 13.80117187 -11.70703125 13.18359375 C-10.8509959 10.53981607 -9.86469239 9.74551168 -7.6875 8.0625 C-5.29451999 6.14323236 -3.70108255 4.60713706 -1.8125 2.125 C-0.9153125 1.073125 -0.9153125 1.073125 0 0 Z " fill="#EDECEA" transform="translate(84,77)"/>
<path d="M0 0 C3.3 0 6.6 0 10 0 C10.02693575 2.12493141 10.04636628 4.24995912 10.0625 6.375 C10.07410156 7.55835938 10.08570312 8.74171875 10.09765625 9.9609375 C10 13 10 13 9 15 C8.34 15 7.68 15 7 15 C7.04125 16.27875 7.0825 17.5575 7.125 18.875 C7.14157783 24.08872856 6.18311358 28.94007672 5 34 C4.01 33.67 3.02 33.34 2 33 C2 33.66 2 34.32 2 35 C2.99 35.33 3.98 35.66 5 36 C4.67 36.66 4.34 37.32 4 38 C3.34 37.67 2.68 37.34 2 37 C1.34 38.32 0.68 39.64 0 41 C-0.8734322 38.47675143 -0.99577928 36.97568282 -0.53344727 34.31201172 C0.04921626 30.6944312 0.11279439 27.29624253 0.09765625 23.6328125 C0.09553383 22.61343094 0.09553383 22.61343094 0.09336853 21.57345581 C0.08781518 19.42392388 0.07527169 17.27449992 0.0625 15.125 C0.05747896 13.65885568 0.05291711 12.19270971 0.04882812 10.7265625 C0.03786111 7.15100717 0.02062919 3.57551414 0 0 Z " fill="#0D0C09" transform="translate(87,0)"/>
<path d="M0 0 C1.11375 0.6496875 1.11375 0.6496875 2.25 1.3125 C3.425625 1.910625 4.60125 2.50875 5.8125 3.125 C10.1358457 5.60606349 11.69336654 8.64259963 13.25 13.3125 C13.25 15.75 13.25 15.75 12.25 18.3125 C10.62724043 19.15768728 9.00127283 19.99730799 7.359375 20.8046875 C3.45261137 23.59730002 0.96912092 27.82174301 -1.734375 31.73046875 C-3.75 34.3125 -3.75 34.3125 -6.75 35.3125 C-7.34189918 32.01477602 -7.16445562 29.95302232 -5.33203125 27.12109375 C-3.50607637 24.820157 -1.64392636 22.55775172 0.25 20.3125 C1.90054607 18.30471245 3.03134435 16.64384125 4.25 14.3125 C3.65061839 9.63732343 0.02849665 6.91678977 -3.2890625 3.86328125 C-4.75 2.3125 -4.75 2.3125 -4.75 0.3125 C-1.75 -0.6875 -1.75 -0.6875 0 0 Z " fill="#11100F" transform="translate(112.75,88.6875)"/>
<path d="M0 0 C0.33 0 0.66 0 1 0 C1.054138 2.24973447 1.09285491 4.49984383 1.125 6.75 C1.14820312 8.00296875 1.17140625 9.2559375 1.1953125 10.546875 C1.01537302 13.72820492 0.68998582 15.36521896 -1 18 C-0.34 18.33 0.32 18.66 1 19 C3.21430114 22.3214517 3.32055627 25.07318564 3 29 C2 31.875 2 31.875 1 34 C-2.37462715 33.45276317 -4.08235 32.9451 -7 31 C-7.375 28.0625 -7.375 28.0625 -7 25 C-6.01979625 23.9805881 -5.02196992 22.97753644 -4 22 C-4.22757731 19.83700789 -4.22757731 19.83700789 -5 18 C-5.99 19.98 -6.98 21.96 -8 24 C-8.66 24 -9.32 24 -10 24 C-9.88541307 22.56163249 -9.75790884 21.12429034 -9.625 19.6875 C-9.55539063 18.88699219 -9.48578125 18.08648437 -9.4140625 17.26171875 C-9 15 -9 15 -7 12 C-6.835 10.845 -6.67 9.69 -6.5 8.5 C-6 5 -6 5 -4 2 C-2.68 2 -1.36 2 0 2 C0 1.34 0 0.68 0 0 Z " fill="#141212" transform="translate(94,109)"/>
<path d="M0 0 C1.32 0 2.64 0 4 0 C4 5.61 4 11.22 4 17 C3.34 15.68 2.68 14.36 2 13 C-0.05000871 12.19471111 -0.05000871 12.19471111 -2 12 C-2.66 13.32 -3.32 14.64 -4 16 C-4.99 15.67 -5.98 15.34 -7 15 C-6.67 14.34 -6.34 13.68 -6 13 C-7.32 12.67 -8.64 12.34 -10 12 C-10 12.66 -10 13.32 -10 14 C-10.66 13.67 -11.32 13.34 -12 13 C-8.49058007 8.81522779 -4.91806547 4.80612075 -1 1 C-0.67 0.67 -0.34 0.34 0 0 Z " fill="#E9E8E6" transform="translate(84,77)"/>
<path d="M0 0 C0.33 0.66 0.66 1.32 1 2 C0.67 2.99 0.34 3.98 0 5 C0.99 5 1.98 5 3 5 C3 9.95 3 14.9 3 20 C2.67 20 2.34 20 2 20 C2 15.71 2 11.42 2 7 C-2.85151961 8.94060784 -3.32874967 9.1839281 -6 13 C-6.66 13 -7.32 13 -8 13 C-8.268125 13.639375 -8.53625 14.27875 -8.8125 14.9375 C-10 17 -10 17 -13 18 C-13.73323796 20.01508358 -13.73323796 20.01508358 -14 22 C-14.66 22 -15.32 22 -16 22 C-15.05360704 15.90102312 -13.84038604 13.30272006 -8.953125 9.5859375 C-5.5327964 6.80863068 -2.81575117 3.37205459 0 0 Z " fill="#181615" transform="translate(86,70)"/>
<path d="M0 0 C4.27461239 0.48938319 6.32551066 2.95742826 9.25 5.9375 C10.14203125 6.83339844 11.0340625 7.72929688 11.953125 8.65234375 C14 11 14 11 14 13 C11.3125 13.8125 11.3125 13.8125 8 14 C5.125 11.6875 5.125 11.6875 3 9 C3 8.34 3 7.68 3 7 C2.0409375 6.566875 2.0409375 6.566875 1.0625 6.125 C-1 5 -1 5 -2 3 C-1.34 2.01 -0.68 1.02 0 0 Z " fill="#181716" transform="translate(97,74)"/>
<path d="M0 0 C0.99 0 1.98 0 3 0 C5.10531329 3.42113409 5.32490511 6.01991246 5 10 C4 12.875 4 12.875 3 15 C-1.75 14.25 -1.75 14.25 -4 12 C-4.25 9.5 -4.25 9.5 -4 7 C-3.34 6.34 -2.68 5.68 -2 5 C-1.01 5 -0.02 5 1 5 C0.67 3.35 0.34 1.7 0 0 Z " fill="#1F1E1E" transform="translate(92,128)"/>
<path d="M0 0 C1.9375 0.8125 1.9375 0.8125 4 2 C4.33 2.99 4.66 3.98 5 5 C6.65438613 5.69658363 8.32254318 6.36096883 10 7 C11.8125 8.3125 11.8125 8.3125 13 10 C13.1875 12.6875 13.1875 12.6875 13 15 C12.01 15.33 11.02 15.66 10 16 C9.54109375 15.46890625 9.0821875 14.9378125 8.609375 14.390625 C7.99578125 13.68421875 7.3821875 12.9778125 6.75 12.25 C6.11578125 11.5178125 5.4815625 10.785625 4.828125 10.03125 C2.96354167 7.88802083 2.96354167 7.88802083 0.5 5.75 C0.005 5.1725 -0.49 4.595 -1 4 C-0.75 1.75 -0.75 1.75 0 0 Z " fill="#121110" transform="translate(66,107)"/>
<path d="M0 0 C0.99 0 1.98 0 3 0 C3 7.26 3 14.52 3 22 C0.525 21.01 0.525 21.01 -2 20 C-2.05418326 17.91695462 -2.09287551 15.83350232 -2.125 13.75 C-2.14820312 12.58984375 -2.17140625 11.4296875 -2.1953125 10.234375 C-2.0103949 7.17213954 -1.60823023 5.55797249 0 3 C0.33 4.32 0.66 5.64 1 7 C1.33 5.35 1.66 3.7 2 2 C1.34 2 0.68 2 0 2 C0 1.34 0 0.68 0 0 Z " fill="#B7B7B2" transform="translate(85,40)"/>
<path d="M0 0 C0.99 0.33 1.98 0.66 3 1 C3 9.58 3 18.16 3 27 C2.01 26.34 1.02 25.68 0 25 C-0.44824219 22.69335938 -0.44824219 22.69335938 -0.546875 19.84375 C-0.58683594 18.82152344 -0.62679687 17.79929687 -0.66796875 16.74609375 C-0.69503906 15.67488281 -0.72210938 14.60367188 -0.75 13.5 C-0.79253906 12.42878906 -0.83507812 11.35757813 -0.87890625 10.25390625 C-1.14973805 2.29947609 -1.14973805 2.29947609 0 0 Z " fill="#060603" transform="translate(89,37)"/>
<path d="M0 0 C0.33 0 0.66 0 1 0 C1.0093457 0.55461914 1.01869141 1.10923828 1.02832031 1.68066406 C1.08215722 4.20466481 1.16577254 6.72683814 1.25 9.25 C1.26417969 10.12269531 1.27835937 10.99539062 1.29296875 11.89453125 C1.42718601 17.07840651 1.42718601 17.07840651 3.9375 21.4765625 C4.618125 21.97929688 5.29875 22.48203125 6 23 C9 26.64285714 9 26.64285714 9 29 C6 30 6 30 4 30 C3.34 30.33 2.68 30.66 2 31 C1.87625 30.360625 1.7525 29.72125 1.625 29.0625 C1.41875 28.381875 1.2125 27.70125 1 27 C0.34 26.67 -0.32 26.34 -1 26 C-0.34 24.02 0.32 22.04 1 20 C0.01 19.67 -0.98 19.34 -2 19 C-1.34 19 -0.68 19 0 19 C0 12.73 0 6.46 0 0 Z " fill="#2C2B29" transform="translate(88,43)"/>
<path d="M0 0 C3.91382929 1.95691464 6.06845671 3.82416144 9 7 C9 7.33 9 7.66 9 8 C7.35 8 5.7 8 4 8 C1.87953208 11.53411321 1.46800711 14.94393835 1 19 C0.67 19 0.34 19 0 19 C0 12.73 0 6.46 0 0 Z " fill="#D6D5D3" transform="translate(93,77)"/>
<path d="M0 0 C0.33 0.66 0.66 1.32 1 2 C1.66 2.33 2.32 2.66 3 3 C2.34 3.70125 1.68 4.4025 1 5.125 C-1.30233203 8.43460229 -1.36630156 10.06225823 -1 14 C-4 14 -4 14 -5.8125 12.375 C-7 10 -7 10 -6.5 7 C-4.81629485 3.6325897 -3.0795438 2.10705629 0 0 Z " fill="#151412" transform="translate(65,93)"/>
<path d="M0 0 C0.99 0 1.98 0 3 0 C3.02693575 2.12493141 3.04636628 4.24995912 3.0625 6.375 C3.07410156 7.55835938 3.08570312 8.74171875 3.09765625 9.9609375 C3 13 3 13 2 15 C1.34 15 0.68 15 0 15 C0 17.97 0 20.94 0 24 C-0.33 24 -0.66 24 -1 24 C-1.10466648 15.92905177 -1.03387512 8.0125322 0 0 Z " fill="#858481" transform="translate(94,0)"/>
<path d="M0 0 C0.66 0 1.32 0 2 0 C2 10.89 2 21.78 2 33 C2.99 33.33 3.98 33.66 5 34 C4.67 34.66 4.34 35.32 4 36 C3.34 35.67 2.68 35.34 2 35 C1.34 36.32 0.68 37.64 0 39 C-0.87735514 36.46541849 -0.99349759 34.96215604 -0.53344727 32.28466797 C0.02970659 28.81708355 0.11319352 25.58173574 0.09765625 22.0703125 C0.09282227 20.13671875 0.09282227 20.13671875 0.08789062 18.1640625 C0.07953733 16.81770764 0.07107241 15.47135348 0.0625 14.125 C0.0574783 12.75520996 0.05291657 11.38541815 0.04882812 10.015625 C0.03707254 6.6770381 0.02063964 3.33854185 0 0 Z " fill="#5A5A55" transform="translate(87,2)"/>
<path d="M0 0 C2.31 0 4.62 0 7 0 C7 3.3 7 6.6 7 10 C6.34 9.67 5.68 9.34 5 9 C4.01 9.33 3.02 9.66 2 10 C2 7.36 2 4.72 2 2 C1.34 2 0.68 2 0 2 C0 1.34 0 0.68 0 0 Z " fill="#131311" transform="translate(87,0)"/>
<path d="M0 0 C0.22179212 3.25295114 0.28601103 5.42797793 -1.1875 8.375 C-3.56258757 10.50438885 -4.89848481 10.15905206 -8 10 C-8.66 10.66 -9.32 11.32 -10 12 C-10 11.01 -10 10.02 -10 9 C-10.66 8.67 -11.32 8.34 -12 8 C-9.6875 7.375 -9.6875 7.375 -7 7 C-6.01 7.66 -5.02 8.32 -4 9 C-4 8.34 -4 7.68 -4 7 C-4.66 7 -5.32 7 -6 7 C-6 5 -6 5 -3.5625 2.375 C-1 0 -1 0 0 0 Z " fill="#E2E1E1" transform="translate(88,115)"/>
<path d="M0 0 C1.98 0.99 1.98 0.99 4 2 C4.33 1.34 4.66 0.68 5 0 C5 10.56 5 21.12 5 32 C4.67 32 4.34 32 4 32 C4 22.76 4 13.52 4 4 C2.68 3.67 1.36 3.34 0 3 C0 2.01 0 1.02 0 0 Z " fill="#AFAEAA" transform="translate(88,32)"/>
<path d="M0 0 C0.33 0 0.66 0 1 0 C1.08121924 1.60332791 1.13929134 3.20784026 1.1875 4.8125 C1.22230469 5.70582031 1.25710937 6.59914063 1.29296875 7.51953125 C0.95081002 10.41647515 0.24606427 11.22555028 -2 13 C-4.31949505 9.52075742 -4.24453809 8.31439223 -3.5 4.3125 C-3.335 3.549375 -3.17 2.78625 -3 2 C-2.34 2 -1.68 2 -1 2 C-0.67 1.34 -0.34 0.68 0 0 Z " fill="#F3F1ED" transform="translate(85,30)"/>
<path d="M0 0 C3.25543229 0.34879632 4.01873107 1.02133261 6.25 3.5625 C6.8275 4.366875 7.405 5.17125 8 6 C4.97786398 6.97140086 2.9812093 7.19248372 0 6 C-0.66 5.01 -1.32 4.02 -2 3 C-1.34 2.01 -0.68 1.02 0 0 Z " fill="#1B1615" transform="translate(97,74)"/>
<path d="M0 0 C0.99 0 1.98 0 3 0 C3.33 1.98 3.66 3.96 4 6 C3.01 6.61875 2.02 7.2375 1 7.875 C0.01 8.57625 -0.98 9.2775 -2 10 C-2 10.66 -2 11.32 -2 12 C-2.66 12 -3.32 12 -4 12 C-4.125 9.625 -4.125 9.625 -4 7 C-3.34 6.34 -2.68 5.68 -2 5 C-1.01 5 -0.02 5 1 5 C0.67 3.35 0.34 1.7 0 0 Z " fill="#0B090A" transform="translate(92,128)"/>
<path d="M0 0 C0.33 0 0.66 0 1 0 C1.35050464 5.841744 1.16727335 9.8531808 -2 15 C-2.66 15 -3.32 15 -4 15 C-3.63495936 9.33557626 -2.9445679 4.99296295 0 0 Z " fill="#302E2F" transform="translate(88,118)"/>
<path d="M0 0 C1.9375 0.8125 1.9375 0.8125 4 2 C5.09658936 5.28976808 4.79953138 6.71303767 4 10 C2.68 10 1.36 10 0 10 C0.33 9.34 0.66 8.68 1 8 C0.67 7.67 0.34 7.34 0 7 C-0.625 4 -0.625 4 -1 1 C-0.67 0.67 -0.34 0.34 0 0 Z " fill="#171716" transform="translate(121,97)"/>
<path d="M0 0 C0.598125 0.350625 1.19625 0.70125 1.8125 1.0625 C1.0625 5.8125 1.0625 5.8125 -1.1875 8.0625 C-3.3125 7.6875 -3.3125 7.6875 -5.1875 7.0625 C-4.5275 6.0725 -3.8675 5.0825 -3.1875 4.0625 C-3.8475 2.7425 -4.5075 1.4225 -5.1875 0.0625 C-2.1875 -0.9375 -2.1875 -0.9375 0 0 Z " fill="#E4E3E1" transform="translate(70.1875,91.9375)"/>
<path d="M0 0 C0.33 0.66 0.66 1.32 1 2 C0.67 2.99 0.34 3.98 0 5 C0.99 5 1.98 5 3 5 C3 9.95 3 14.9 3 20 C2.67 20 2.34 20 2 20 C2 15.71 2 11.42 2 7 C-2.64045375 5.90194193 -2.64045375 5.90194193 -6 6 C-4.02 4.02 -2.04 2.04 0 0 Z " fill="#454240" transform="translate(86,70)"/>
<path d="M0 0 C0.33 0 0.66 0 1 0 C1.2493357 1.60115576 1.47378648 3.20620159 1.6875 4.8125 C1.81511719 5.70582031 1.94273438 6.59914063 2.07421875 7.51953125 C2 10 2 10 0.6875 11.8125 C-1.5988761 13.42143133 -3.27022708 13.22133294 -6 13 C-5.67 12.34 -5.34 11.68 -5 11 C-4.34 11.33 -3.68 11.66 -3 12 C-2.87625 11.319375 -2.7525 10.63875 -2.625 9.9375 C-1.90899123 6.5722588 -0.97054875 3.29986575 0 0 Z " fill="#DDDBDC" transform="translate(89,121)"/>
<path d="M0 0 C1.32 0.33 2.64 0.66 4 1 C3.34 2.32 2.68 3.64 2 5 C0.68 4.67 -0.64 4.34 -2 4 C-2.33 5.65 -2.66 7.3 -3 9 C-4.32 8.67 -5.64 8.34 -7 8 C-4.69 5.36 -2.38 2.72 0 0 Z " fill="#D9D7D5" transform="translate(84,77)"/>
<path d="M0 0 C1.9375 0.8125 1.9375 0.8125 4 2 C4.33 2.99 4.66 3.98 5 5 C5.66 5.33 6.32 5.66 7 6 C3.98968256 6.93423645 3.13349732 7.04449911 0 6 C-0.38218767 4.34385343 -0.71395102 2.67542976 -1 1 C-0.67 0.67 -0.34 0.34 0 0 Z " fill="#1D1C1B" transform="translate(66,107)"/>
<path d="M0 0 C2.97 0.33 5.94 0.66 9 1 C8.67 2.65 8.34 4.3 8 6 C6.02 6 4.04 6 2 6 C1.34 4.02 0.68 2.04 0 0 Z " fill="#F4EFEC" transform="translate(102,72)"/>
<path d="M0 0 C2.475 0.99 2.475 0.99 5 2 C4.375 3.9375 4.375 3.9375 3 6 C-0.125 6.75 -0.125 6.75 -3 7 C-2.25 2.25 -2.25 2.25 0 0 Z " fill="#0A0909" transform="translate(93,71)"/>
<path d="M0 0 C0.36814024 6.50381098 0.36814024 6.50381098 -1.4375 8.9375 C-3 10 -3 10 -4 10 C-4.29296875 3.9453125 -4.29296875 3.9453125 -4 2 C-1 0 -1 0 0 0 Z " fill="#020200" transform="translate(93,8)"/>
<path d="M0 0 C0 1.65 0 3.3 0 5 C-0.99 5.33 -1.98 5.66 -3 6 C-3.73323796 8.01508358 -3.73323796 8.01508358 -4 10 C-4.66 10 -5.32 10 -6 10 C-3.90322581 0 -3.90322581 0 0 0 Z " fill="#363534" transform="translate(76,82)"/>
<path d="M0 0 C0.99 0 1.98 0 3 0 C4.0625 2.375 4.0625 2.375 5 5 C4.67 5.66 4.34 6.32 4 7 C2.68 7 1.36 7 0 7 C-0.33 7.66 -0.66 8.32 -1 9 C-1 7.68 -1 6.36 -1 5 C-0.34 5 0.32 5 1 5 C0.67 3.35 0.34 1.7 0 0 Z " fill="#070605" transform="translate(90,104)"/>
<path d="M0 0 C0.66 0.66 1.32 1.32 2 2 C0.625 3.5 0.625 3.5 -1 5 C-1.66 5 -2.32 5 -3 5 C-3.66 6.32 -4.32 7.64 -5 9 C-5.33 7.02 -5.66 5.04 -6 3 C-4.02 2.01 -2.04 1.02 0 0 Z " fill="#DAD9D7" transform="translate(63,92)"/>
<path d="M0 0 C1.5 1.125 1.5 1.125 3 3 C3.1875 6.1875 3.1875 6.1875 3 9 C2.0409375 9.3403125 2.0409375 9.3403125 1.0625 9.6875 C-1.27193661 10.85250896 -1.27193661 10.85250896 -1.75 13.625 C-1.8325 14.40875 -1.915 15.1925 -2 16 C-2.33 16 -2.66 16 -3 16 C-3.1875 13.1875 -3.1875 13.1875 -3 10 C-2.505 9.525625 -2.01 9.05125 -1.5 8.5625 C0.40783642 6.91660308 0.40783642 6.91660308 0.1875 3.3125 C0.125625 2.219375 0.06375 1.12625 0 0 Z " fill="#464545" transform="translate(90,124)"/>
<path d="M0 0 C2.475 0.99 2.475 0.99 5 2 C4.67 2.99 4.34 3.98 4 5 C1.9375 5.6875 1.9375 5.6875 0 6 C-0.66 4.68 -1.32 3.36 -2 2 C-1.34 1.34 -0.68 0.68 0 0 Z " fill="#090807" transform="translate(102,79)"/>
<path d="M0 0 C0 0.99 0 1.98 0 3 C-0.99 3 -1.98 3 -3 3 C-1.02 5.97 -1.02 5.97 1 9 C-0.32 9 -1.64 9 -3 9 C-3.33 6.69 -3.66 4.38 -4 2 C-2.68 1.34 -1.36 0.68 0 0 Z " fill="#B9B8B6" transform="translate(111,86)"/>
<path d="M0 0 C1 3 1 3 0.0625 5.1875 C-0.4634375 6.0846875 -0.4634375 6.0846875 -1 7 C-2.65 5.35 -4.3 3.7 -6 2 C-2.25 0.875 -2.25 0.875 0 2 C0 1.34 0 0.68 0 0 Z " fill="#E6E2E0" transform="translate(110,76)"/>
<path d="M0 0 C0 3.63 0 7.26 0 11 C-0.66 11 -1.32 11 -2 11 C-2.33 7.7 -2.66 4.4 -3 1 C-1 0 -1 0 0 0 Z " fill="#F4F3EF" transform="translate(88,51)"/>
<path d="M0 0 C1.125 1.75 1.125 1.75 2 4 C1.125 6.25 1.125 6.25 0 8 C-0.66 8 -1.32 8 -2 8 C-2.125 5.125 -2.125 5.125 -2 2 C-1.34 1.34 -0.68 0.68 0 0 Z " fill="#252422" transform="translate(108,116)"/>
<path d="M0 0 C2 3 2 3 2 5 C-1.68754757 4.50168276 -3.60490662 3.89932357 -6 1 C-4.7934375 1.0309375 -4.7934375 1.0309375 -3.5625 1.0625 C-1.06645115 1.29633621 -1.06645115 1.29633621 0 0 Z " fill="#E2E1E0" transform="translate(80,112)"/>
<path d="M0 0 C1.32 0.33 2.64 0.66 4 1 C4 2.65 4 4.3 4 6 C2.68 6 1.36 6 0 6 C0 4.02 0 2.04 0 0 Z " fill="#F1F0EE" transform="translate(83,99)"/>
<path d="M0 0 C0.66 0.33 1.32 0.66 2 1 C2 3.97 2 6.94 2 10 C1.01 10.495 1.01 10.495 0 11 C0 8.36 0 5.72 0 3 C-0.66 2.67 -1.32 2.34 -2 2 C-1.34 2 -0.68 2 0 2 C0 1.34 0 0.68 0 0 Z " fill="#B8B7B5" transform="translate(87,97)"/>
<path d="M0 0 C0.33 0 0.66 0 1 0 C1 2.31 1 4.62 1 7 C0.01 7.33 -0.98 7.66 -2 8 C-2 6.02 -2 4.04 -2 2 C-1.34 2 -0.68 2 0 2 C0 1.34 0 0.68 0 0 Z " fill="#030200" transform="translate(91,24)"/>
<path d="M0 0 C-0.3125 1.875 -0.3125 1.875 -1 4 C-1.99 4.66 -2.98 5.32 -4 6 C-4.66 5.34 -5.32 4.68 -6 4 C-2.25 0 -2.25 0 0 0 Z " fill="#050504" transform="translate(118,106)"/>
<path d="M0 0 C1.32 0.33 2.64 0.66 4 1 C4 1.66 4 2.32 4 3 C2 4 0 5 -2 6 C-2.33 5.01 -2.66 4.02 -3 3 C-2.01 2.67 -1.02 2.34 0 2 C0 1.34 0 0.68 0 0 Z " fill="#F7F6F4" transform="translate(74,89)"/>
<path d="M0 0 C1.65 0.33 3.3 0.66 5 1 C4.67 1.66 4.34 2.32 4 3 C3.34 3 2.68 3 2 3 C2 3.66 2 4.32 2 5 C0.35 4.67 -1.3 4.34 -3 4 C-2.01 2.68 -1.02 1.36 0 0 Z " fill="#E0E0DC" transform="translate(121,89)"/>
<path d="M0 0 C-0.66 0.66 -1.32 1.32 -2 2 C-2 2.99 -2 3.98 -2 5 C-4 3.625 -4 3.625 -6 2 C-6 1.34 -6 0.68 -6 0 C-3 -1 -3 -1 0 0 Z " fill="#171615" transform="translate(114,89)"/>
<path d="M0 0 C0.99 0.33 1.98 0.66 3 1 C1.35 2.65 -0.3 4.3 -2 6 C-2.66 5.67 -3.32 5.34 -4 5 C-3 2 -3 2 0 0 Z " fill="#0C0705" transform="translate(83,75)"/>
<path d="M0 0 C0.33 0 0.66 0 1 0 C1.36923077 4.55384615 1.36923077 4.55384615 -0.5 6.8125 C-0.995 7.204375 -1.49 7.59625 -2 8 C-2.99 7.67 -3.98 7.34 -5 7 C-4.67 6.01 -4.34 5.02 -4 4 C-2.68 4 -1.36 4 0 4 C-0.33 3.01 -0.66 2.02 -1 1 C-0.67 0.67 -0.34 0.34 0 0 Z " fill="#F6F1EB" transform="translate(102,6)"/>
<path d="M0 0 C0.33 0.99 0.66 1.98 1 3 C1.66 3.33 2.32 3.66 3 4 C1 6 1 6 -1.625 6.125 C-2.40875 6.08375 -3.1925 6.0425 -4 6 C-3.67 5.34 -3.34 4.68 -3 4 C-2.34 4.33 -1.68 4.66 -1 5 C-0.67 3.35 -0.34 1.7 0 0 Z " fill="#BDBBBC" transform="translate(87,128)"/>
<path d="M0 0 C1.32 0.33 2.64 0.66 4 1 C4 1.66 4 2.32 4 3 C3.01 3.33 2.02 3.66 1 4 C0.67 2.68 0.34 1.36 0 0 Z M-3 2 C-2.01 2.33 -1.02 2.66 0 3 C-0.99 3.66 -1.98 4.32 -3 5 C-3 4.01 -3 3.02 -3 2 Z " fill="#121111" transform="translate(93,69)"/>
</svg>
